<svg width="48" height="48" viewBox="0 0 48 48" fill="none" xmlns="http://www.w3.org/2000/svg">
<path d="M42.1125 19.5H39.6562V16.5L38.3063 12H35.9062V9L34.5 4.5H13.5L12.0938 9V12H9.69375L8.34375 16.5V19.5H5.8875L4.5 24V39.4969C4.5 41.7 7.8 43.5 10.0031 43.5H39.5062C41.55 43.5 43.5094 41.6531 43.5094 39.6562V24L42.1125 19.5ZM16.5 9H31.5V12H16.5V9ZM12.6562 16.5H35.3438V19.5H12.6562V16.5ZM39.0938 27H31.35C30.6562 30.4219 27.6281 33 24 33C20.3719 33 17.3438 30.4219 16.65 27H8.90625V24H39.0938V27Z" fill="white"/>
</svg>
