<svg width="18" height="18" viewBox="0 0 18 18" fill="none" xmlns="http://www.w3.org/2000/svg">
<path d="M9.00352 5.09063C10.9793 5.09063 12.5859 6.6832 12.5859 8.64492C12.5859 9.10547 12.4945 9.54141 12.3293 9.9457L14.4211 12.0199C15.5039 11.1234 16.3547 9.9668 16.8785 8.64492C15.6375 5.52656 12.5789 3.31523 8.99648 3.31523C7.99453 3.31523 7.03477 3.49453 6.14531 3.81094L7.69219 5.34727C8.1 5.18555 8.53945 5.09063 9.00352 5.09063ZM1.84219 3.15352L3.47695 4.77422L3.80742 5.10117C2.61563 6.01523 1.68398 7.23867 1.125 8.64492C2.3625 11.7633 5.42109 13.9746 9.00352 13.9746C10.1145 13.9746 11.1727 13.7602 12.1395 13.377L12.4418 13.6758L14.5406 15.75L15.4512 14.8465L2.74922 2.25L1.84219 3.15352ZM5.80078 7.08047L6.91172 8.18086C6.87656 8.32852 6.85547 8.48672 6.85547 8.64141C6.85547 9.81914 7.81523 10.7719 9.00352 10.7719C9.16172 10.7719 9.31992 10.7508 9.46758 10.7156L10.5785 11.816C10.1004 12.0516 9.56953 12.1922 9.00352 12.1922C7.02773 12.1922 5.42109 10.5996 5.42109 8.63789C5.42109 8.08242 5.56523 7.55859 5.80078 7.08047ZM8.8875 6.52852L11.1445 8.76797L11.1586 8.65547C11.1586 7.47773 10.1988 6.525 9.01055 6.525L8.8875 6.52852Z" fill="black"/>
</svg>
