<svg width="24" height="24" viewBox="0 0 24 24" fill="none" xmlns="http://www.w3.org/2000/svg">
<path d="M12 2.25C6.58889 2.25 2.25 6.6375 2.25 12C2.25 17.3625 6.58889 21.75 12 21.75C17.4111 21.75 21.75 17.3625 21.75 12C21.75 6.6375 17.3625 2.25 12 2.25ZM12 19.8C7.71009 19.8 4.19981 16.2899 4.19981 12C4.19981 7.71009 7.71014 4.2 12 4.2C16.2899 4.2 19.8002 7.71009 19.8002 12C19.8002 16.2899 16.2899 19.8 12 19.8ZM15.4125 11.025C16.2414 11.025 16.875 10.3913 16.875 9.5625C16.875 8.73366 16.2413 8.1 15.4125 8.1C14.5837 8.1 13.95 8.73366 13.95 9.5625C13.95 10.3913 14.5837 11.025 15.4125 11.025ZM8.5875 11.025C9.41634 11.025 10.05 10.3913 10.05 9.5625C10.05 8.73366 9.4163 8.1 8.5875 8.1C7.75861 8.1 7.12495 8.73366 7.12495 9.5625C7.12495 10.3913 7.75866 11.025 8.5875 11.025ZM12 17.3625C14.2914 17.3625 16.1923 15.9486 16.9725 13.95H7.02745C7.80769 15.9486 9.70861 17.3625 12 17.3625Z" fill="#27AE60"/>
</svg>
