<svg width="24" height="24" viewBox="0 0 24 24" fill="none" xmlns="http://www.w3.org/2000/svg">
<path d="M12.0001 13.5C9.86995 13.5 8.07782 14.7223 7.20923 16.5H16.791C15.9224 14.7223 14.1302 13.5 12.0001 13.5Z" fill="#EB5757"/>
<path d="M12 2.25C6.58889 2.25 2.25 6.6375 2.25 12C2.25 17.3625 6.58889 21.75 12 21.75C17.4111 21.75 21.75 17.3625 21.75 12C21.75 6.6375 17.3625 2.25 12 2.25ZM12 19.8C7.71009 19.8 4.19981 16.2899 4.19981 12C4.19981 7.71009 7.71014 4.2 12 4.2C16.2899 4.2 19.8002 7.71009 19.8002 12C19.8002 16.2899 16.2899 19.8 12 19.8Z" fill="#EB5757"/>
<path d="M15.4125 11.0249C16.2414 11.0249 16.8751 10.3912 16.8751 9.56235C16.8751 8.73351 16.2414 8.09985 15.4125 8.09985C14.5837 8.09985 13.95 8.73351 13.95 9.56235C13.95 10.3912 14.5837 11.0249 15.4125 11.0249ZM8.58755 11.0249C9.41639 11.0249 10.05 10.3912 10.05 9.56235C10.05 8.73351 9.41634 8.09985 8.58755 8.09985C7.75866 8.09985 7.125 8.73351 7.125 9.56235C7.125 10.3912 7.7587 11.0249 8.58755 11.0249Z" fill="#EB5757"/>
</svg>
