<svg width="48" height="48" viewBox="0 0 48 48" fill="none" xmlns="http://www.w3.org/2000/svg">
<path d="M31.6415 28.6286H30.0007L29.3847 28.1143C31.3339 25.7488 32.5649 22.7655 32.5649 19.3715C32.5648 11.9655 26.6152 6 19.2314 6C11.9486 6 6 11.9655 6 19.3715C6 26.7774 11.9486 32.7428 19.3336 32.7428C22.6159 32.7428 25.6928 31.5084 28.0515 29.5546L28.6666 30.069V31.7144L38.9231 42L42 38.9143L31.6415 28.6286ZM19.3336 28.6286C14.2053 28.6286 10.1027 24.5142 10.1027 19.3715C10.1027 14.2285 14.2053 10.1144 19.3336 10.1144C24.4617 10.1144 28.5644 14.2285 28.5644 19.3715C28.5644 24.5142 24.4617 28.6286 19.3336 28.6286Z" fill="#333333"/>
</svg>
