<svg width="36" height="36" viewBox="0 0 36 36" fill="none" xmlns="http://www.w3.org/2000/svg">
<path d="M25.6415 22.6286H24.0007L23.3847 22.1143C25.3339 19.7488 26.5649 16.7655 26.5649 13.3715C26.5648 5.9655 20.6152 0 13.2314 0C5.94862 0 0 5.9655 0 13.3715C0 20.7774 5.94863 26.7428 13.3336 26.7428C16.6159 26.7428 19.6928 25.5084 22.0515 23.5546L22.6666 24.069V25.7144L32.9231 36L36 32.9143L25.6415 22.6286ZM13.3336 22.6286C8.20528 22.6286 4.10269 18.5142 4.10269 13.3715C4.10269 8.22853 8.20528 4.11441 13.3336 4.11441C18.4617 4.11441 22.5644 8.22853 22.5644 13.3715C22.5644 18.5142 18.4617 22.6286 13.3336 22.6286Z" fill="white"/>
</svg>
