<svg width="386" height="258" viewBox="0 0 386 258" fill="none" xmlns="http://www.w3.org/2000/svg">
<line x1="1.5" y1="34.5" x2="337.5" y2="34.5" stroke="#8E8E93" stroke-dasharray="8 8"/>
<line x1="1.5" y1="98.5" x2="336.5" y2="98.5" stroke="#8E8E93" stroke-dasharray="8 8"/>
<line x1="5.5" y1="170.5" x2="334.5" y2="170.5" stroke="#8E8E93" stroke-dasharray="8 8"/>
<path d="M353.789 29.4375L349.078 40H347.562L352.258 29.8125H346.102V28.625H353.789V29.4375ZM362.722 35.1484C362.722 36.8411 362.433 38.099 361.855 38.9219C361.277 39.7448 360.374 40.1562 359.144 40.1562C357.931 40.1562 357.032 39.7552 356.449 38.9531C355.866 38.1458 355.564 36.9427 355.543 35.3438V33.4141C355.543 31.7422 355.832 30.5 356.41 29.6875C356.988 28.875 357.894 28.4688 359.129 28.4688C360.353 28.4688 361.254 28.862 361.832 29.6484C362.41 30.4297 362.707 31.638 362.722 33.2734V35.1484ZM361.277 33.1719C361.277 31.9479 361.105 31.0573 360.762 30.5C360.418 29.9375 359.874 29.6562 359.129 29.6562C358.389 29.6562 357.85 29.9349 357.512 30.4922C357.173 31.0495 356.999 31.9062 356.988 33.0625V35.375C356.988 36.6042 357.165 37.513 357.519 38.1016C357.879 38.6849 358.42 38.9766 359.144 38.9766C359.858 38.9766 360.387 38.7005 360.73 38.1484C361.079 37.5964 361.262 36.7266 361.277 35.5391V33.1719ZM372.078 29.4375L367.367 40H365.851L370.547 29.8125H364.39V28.625H372.078V29.4375Z" fill="#4F4F4F"/>
<path d="M352.547 100.18H354.125V101.359H352.547V104H351.094V101.359H345.914V100.508L351.008 92.625H352.547V100.18ZM347.555 100.18H351.094V94.6016L350.922 94.9141L347.555 100.18ZM362.722 99.1484C362.722 100.841 362.433 102.099 361.855 102.922C361.277 103.745 360.374 104.156 359.144 104.156C357.931 104.156 357.032 103.755 356.449 102.953C355.866 102.146 355.564 100.943 355.543 99.3438V97.4141C355.543 95.7422 355.832 94.5 356.41 93.6875C356.988 92.875 357.894 92.4688 359.129 92.4688C360.353 92.4688 361.254 92.862 361.832 93.6484C362.41 94.4297 362.707 95.638 362.722 97.2734V99.1484ZM361.277 97.1719C361.277 95.9479 361.105 95.0573 360.762 94.5C360.418 93.9375 359.874 93.6562 359.129 93.6562C358.389 93.6562 357.85 93.9349 357.512 94.4922C357.173 95.0495 356.999 95.9062 356.988 97.0625V99.375C356.988 100.604 357.165 101.513 357.519 102.102C357.879 102.685 358.42 102.977 359.144 102.977C359.858 102.977 360.387 102.701 360.73 102.148C361.079 101.596 361.262 100.727 361.277 99.5391V97.1719ZM371.867 99.1484C371.867 100.841 371.578 102.099 371 102.922C370.422 103.745 369.518 104.156 368.289 104.156C367.075 104.156 366.177 103.755 365.593 102.953C365.01 102.146 364.708 100.943 364.687 99.3438V97.4141C364.687 95.7422 364.976 94.5 365.554 93.6875C366.132 92.875 367.039 92.4688 368.273 92.4688C369.497 92.4688 370.398 92.862 370.976 93.6484C371.554 94.4297 371.851 95.638 371.867 97.2734V99.1484ZM370.422 97.1719C370.422 95.9479 370.25 95.0573 369.906 94.5C369.562 93.9375 369.018 93.6562 368.273 93.6562C367.534 93.6562 366.994 93.9349 366.656 94.4922C366.317 95.0495 366.143 95.9062 366.132 97.0625V99.375C366.132 100.604 366.31 101.513 366.664 102.102C367.023 102.685 367.565 102.977 368.289 102.977C369.002 102.977 369.531 102.701 369.875 102.148C370.224 101.596 370.406 100.727 370.422 99.5391V97.1719Z" fill="#4F4F4F"/>
<path d="M41.6897 254H34.2366V252.961L38.1741 248.586C38.7574 247.924 39.1584 247.388 39.3772 246.977C39.6011 246.56 39.7131 246.13 39.7131 245.688C39.7131 245.094 39.5334 244.607 39.1741 244.227C38.8147 243.846 38.3355 243.656 37.7366 243.656C37.0178 243.656 36.4579 243.862 36.0569 244.273C35.661 244.68 35.4631 245.247 35.4631 245.977H34.0178C34.0178 244.93 34.3538 244.083 35.0256 243.438C35.7027 242.792 36.6064 242.469 37.7366 242.469C38.7939 242.469 39.6298 242.747 40.2444 243.305C40.859 243.857 41.1663 244.594 41.1663 245.516C41.1663 246.635 40.4527 247.969 39.0256 249.516L35.9788 252.82H41.6897V254ZM50.5138 249.148C50.5138 250.841 50.2247 252.099 49.6466 252.922C49.0684 253.745 48.1648 254.156 46.9356 254.156C45.7221 254.156 44.8236 253.755 44.2403 252.953C43.657 252.146 43.3549 250.943 43.3341 249.344V247.414C43.3341 245.742 43.6231 244.5 44.2013 243.688C44.7794 242.875 45.6856 242.469 46.92 242.469C48.144 242.469 49.045 242.862 49.6231 243.648C50.2013 244.43 50.4981 245.638 50.5138 247.273V249.148ZM49.0684 247.172C49.0684 245.948 48.8966 245.057 48.5528 244.5C48.2091 243.938 47.6648 243.656 46.92 243.656C46.1804 243.656 45.6414 243.935 45.3028 244.492C44.9643 245.049 44.7898 245.906 44.7794 247.062V249.375C44.7794 250.604 44.9565 251.513 45.3106 252.102C45.67 252.685 46.2117 252.977 46.9356 252.977C47.6492 252.977 48.1778 252.701 48.5216 252.148C48.8705 251.596 49.0528 250.727 49.0684 249.539V247.172ZM57.2753 254H55.8222V244.367L52.9081 245.438V244.125L57.0487 242.57H57.2753V254ZM67.3416 242.617V243.844H67.0759C65.9509 243.865 65.0551 244.198 64.3884 244.844C63.7218 245.49 63.3364 246.398 63.2322 247.57C63.8311 246.883 64.6489 246.539 65.6853 246.539C66.6749 246.539 67.464 246.888 68.0525 247.586C68.6462 248.284 68.9431 249.185 68.9431 250.289C68.9431 251.461 68.6228 252.398 67.9822 253.102C67.3468 253.805 66.4926 254.156 65.4197 254.156C64.3311 254.156 63.4483 253.74 62.7712 252.906C62.0942 252.068 61.7556 250.99 61.7556 249.672V249.117C61.7556 247.023 62.2009 245.424 63.0916 244.32C63.9874 243.211 65.3181 242.643 67.0837 242.617H67.3416ZM65.4431 247.742C64.9483 247.742 64.4926 247.891 64.0759 248.188C63.6593 248.484 63.3702 248.857 63.2087 249.305V249.836C63.2087 250.773 63.4197 251.529 63.8416 252.102C64.2634 252.674 64.7895 252.961 65.4197 252.961C66.0707 252.961 66.5811 252.721 66.9509 252.242C67.3259 251.763 67.5134 251.135 67.5134 250.359C67.5134 249.578 67.3233 248.948 66.9431 248.469C66.5681 247.984 66.0681 247.742 65.4431 247.742Z" fill="#4F4F4F"/>
<path d="M121.69 254H114.237V252.961L118.174 248.586C118.757 247.924 119.158 247.388 119.377 246.977C119.601 246.56 119.713 246.13 119.713 245.688C119.713 245.094 119.533 244.607 119.174 244.227C118.815 243.846 118.336 243.656 117.737 243.656C117.018 243.656 116.458 243.862 116.057 244.273C115.661 244.68 115.463 245.247 115.463 245.977H114.018C114.018 244.93 114.354 244.083 115.026 243.438C115.703 242.792 116.606 242.469 117.737 242.469C118.794 242.469 119.63 242.747 120.244 243.305C120.859 243.857 121.166 244.594 121.166 245.516C121.166 246.635 120.453 247.969 119.026 249.516L115.979 252.82H121.69V254ZM130.514 249.148C130.514 250.841 130.225 252.099 129.647 252.922C129.068 253.745 128.165 254.156 126.936 254.156C125.722 254.156 124.824 253.755 124.24 252.953C123.657 252.146 123.355 250.943 123.334 249.344V247.414C123.334 245.742 123.623 244.5 124.201 243.688C124.779 242.875 125.686 242.469 126.92 242.469C128.144 242.469 129.045 242.862 129.623 243.648C130.201 244.43 130.498 245.638 130.514 247.273V249.148ZM129.068 247.172C129.068 245.948 128.897 245.057 128.553 244.5C128.209 243.938 127.665 243.656 126.92 243.656C126.18 243.656 125.641 243.935 125.303 244.492C124.964 245.049 124.79 245.906 124.779 247.062V249.375C124.779 250.604 124.956 251.513 125.311 252.102C125.67 252.685 126.212 252.977 126.936 252.977C127.649 252.977 128.178 252.701 128.522 252.148C128.871 251.596 129.053 250.727 129.068 249.539V247.172ZM137.275 254H135.822V244.367L132.908 245.438V244.125L137.049 242.57H137.275V254ZM149.013 243.438L144.302 254H142.787L147.482 243.812H141.326V242.625H149.013V243.438Z" fill="#4F4F4F"/>
<path d="M200.69 254H193.237V252.961L197.174 248.586C197.757 247.924 198.158 247.388 198.377 246.977C198.601 246.56 198.713 246.13 198.713 245.688C198.713 245.094 198.533 244.607 198.174 244.227C197.815 243.846 197.336 243.656 196.737 243.656C196.018 243.656 195.458 243.862 195.057 244.273C194.661 244.68 194.463 245.247 194.463 245.977H193.018C193.018 244.93 193.354 244.083 194.026 243.438C194.703 242.792 195.606 242.469 196.737 242.469C197.794 242.469 198.63 242.747 199.244 243.305C199.859 243.857 200.166 244.594 200.166 245.516C200.166 246.635 199.453 247.969 198.026 249.516L194.979 252.82H200.69V254ZM209.514 249.148C209.514 250.841 209.225 252.099 208.647 252.922C208.068 253.745 207.165 254.156 205.936 254.156C204.722 254.156 203.824 253.755 203.24 252.953C202.657 252.146 202.355 250.943 202.334 249.344V247.414C202.334 245.742 202.623 244.5 203.201 243.688C203.779 242.875 204.686 242.469 205.92 242.469C207.144 242.469 208.045 242.862 208.623 243.648C209.201 244.43 209.498 245.638 209.514 247.273V249.148ZM208.068 247.172C208.068 245.948 207.897 245.057 207.553 244.5C207.209 243.938 206.665 243.656 205.92 243.656C205.18 243.656 204.641 243.935 204.303 244.492C203.964 245.049 203.79 245.906 203.779 247.062V249.375C203.779 250.604 203.956 251.513 204.311 252.102C204.67 252.685 205.212 252.977 205.936 252.977C206.649 252.977 207.178 252.701 207.522 252.148C207.871 251.596 208.053 250.727 208.068 249.539V247.172ZM216.275 254H214.822V244.367L211.908 245.438V244.125L216.049 242.57H216.275V254ZM227.568 245.594C227.568 246.161 227.417 246.667 227.115 247.109C226.818 247.552 226.414 247.898 225.904 248.148C226.498 248.404 226.967 248.776 227.31 249.266C227.659 249.755 227.834 250.31 227.834 250.93C227.834 251.914 227.5 252.698 226.834 253.281C226.172 253.865 225.3 254.156 224.217 254.156C223.123 254.156 222.245 253.865 221.584 253.281C220.927 252.693 220.599 251.909 220.599 250.93C220.599 250.315 220.766 249.76 221.099 249.266C221.438 248.771 221.904 248.396 222.498 248.141C221.993 247.891 221.594 247.544 221.302 247.102C221.011 246.659 220.865 246.156 220.865 245.594C220.865 244.635 221.172 243.875 221.787 243.312C222.401 242.75 223.211 242.469 224.217 242.469C225.217 242.469 226.024 242.75 226.638 243.312C227.258 243.875 227.568 244.635 227.568 245.594ZM226.388 250.898C226.388 250.263 226.185 249.745 225.779 249.344C225.378 248.943 224.852 248.742 224.201 248.742C223.55 248.742 223.026 248.94 222.631 249.336C222.24 249.732 222.045 250.253 222.045 250.898C222.045 251.544 222.235 252.052 222.615 252.422C223 252.792 223.534 252.977 224.217 252.977C224.894 252.977 225.425 252.792 225.81 252.422C226.196 252.047 226.388 251.539 226.388 250.898ZM224.217 243.656C223.649 243.656 223.188 243.833 222.834 244.188C222.485 244.536 222.31 245.013 222.31 245.617C222.31 246.195 222.482 246.664 222.826 247.023C223.175 247.378 223.638 247.555 224.217 247.555C224.795 247.555 225.256 247.378 225.599 247.023C225.948 246.664 226.123 246.195 226.123 245.617C226.123 245.039 225.943 244.568 225.584 244.203C225.224 243.839 224.769 243.656 224.217 243.656Z" fill="#4F4F4F"/>
<path d="M281.69 254H274.237V252.961L278.174 248.586C278.757 247.924 279.158 247.388 279.377 246.977C279.601 246.56 279.713 246.13 279.713 245.688C279.713 245.094 279.533 244.607 279.174 244.227C278.815 243.846 278.336 243.656 277.737 243.656C277.018 243.656 276.458 243.862 276.057 244.273C275.661 244.68 275.463 245.247 275.463 245.977H274.018C274.018 244.93 274.354 244.083 275.026 243.438C275.703 242.792 276.606 242.469 277.737 242.469C278.794 242.469 279.63 242.747 280.244 243.305C280.859 243.857 281.166 244.594 281.166 245.516C281.166 246.635 280.453 247.969 279.026 249.516L275.979 252.82H281.69V254ZM290.514 249.148C290.514 250.841 290.225 252.099 289.647 252.922C289.068 253.745 288.165 254.156 286.936 254.156C285.722 254.156 284.824 253.755 284.24 252.953C283.657 252.146 283.355 250.943 283.334 249.344V247.414C283.334 245.742 283.623 244.5 284.201 243.688C284.779 242.875 285.686 242.469 286.92 242.469C288.144 242.469 289.045 242.862 289.623 243.648C290.201 244.43 290.498 245.638 290.514 247.273V249.148ZM289.068 247.172C289.068 245.948 288.897 245.057 288.553 244.5C288.209 243.938 287.665 243.656 286.92 243.656C286.18 243.656 285.641 243.935 285.303 244.492C284.964 245.049 284.79 245.906 284.779 247.062V249.375C284.779 250.604 284.956 251.513 285.311 252.102C285.67 252.685 286.212 252.977 286.936 252.977C287.649 252.977 288.178 252.701 288.522 252.148C288.871 251.596 289.053 250.727 289.068 249.539V247.172ZM297.275 254H295.822V244.367L292.908 245.438V244.125L297.049 242.57H297.275V254ZM307.209 249C306.907 249.359 306.545 249.648 306.123 249.867C305.706 250.086 305.248 250.195 304.748 250.195C304.092 250.195 303.519 250.034 303.029 249.711C302.545 249.388 302.17 248.935 301.904 248.352C301.638 247.763 301.506 247.115 301.506 246.406C301.506 245.646 301.649 244.961 301.935 244.352C302.227 243.742 302.638 243.276 303.17 242.953C303.701 242.63 304.321 242.469 305.029 242.469C306.154 242.469 307.039 242.891 307.685 243.734C308.336 244.573 308.662 245.719 308.662 247.172V247.594C308.662 249.807 308.224 251.424 307.349 252.445C306.474 253.461 305.154 253.982 303.388 254.008H303.107V252.789H303.412C304.605 252.768 305.521 252.458 306.162 251.859C306.802 251.255 307.151 250.302 307.209 249ZM304.982 249C305.467 249 305.912 248.852 306.318 248.555C306.73 248.258 307.029 247.891 307.217 247.453V246.875C307.217 245.927 307.011 245.156 306.599 244.562C306.188 243.969 305.667 243.672 305.037 243.672C304.401 243.672 303.891 243.917 303.506 244.406C303.12 244.891 302.927 245.531 302.927 246.328C302.927 247.104 303.112 247.745 303.482 248.25C303.857 248.75 304.357 249 304.982 249Z" fill="#4F4F4F"/>
<path d="M353.898 171H346.445V169.961L350.383 165.586C350.966 164.924 351.367 164.388 351.586 163.977C351.81 163.56 351.922 163.13 351.922 162.688C351.922 162.094 351.742 161.607 351.383 161.227C351.023 160.846 350.544 160.656 349.945 160.656C349.227 160.656 348.667 160.862 348.266 161.273C347.87 161.68 347.672 162.247 347.672 162.977H346.227C346.227 161.93 346.562 161.083 347.234 160.438C347.911 159.792 348.815 159.469 349.945 159.469C351.003 159.469 351.839 159.747 352.453 160.305C353.068 160.857 353.375 161.594 353.375 162.516C353.375 163.635 352.661 164.969 351.234 166.516L348.188 169.82H353.898V171ZM362.722 166.148C362.722 167.841 362.433 169.099 361.855 169.922C361.277 170.745 360.374 171.156 359.144 171.156C357.931 171.156 357.032 170.755 356.449 169.953C355.866 169.146 355.564 167.943 355.543 166.344V164.414C355.543 162.742 355.832 161.5 356.41 160.688C356.988 159.875 357.894 159.469 359.129 159.469C360.353 159.469 361.254 159.862 361.832 160.648C362.41 161.43 362.707 162.638 362.722 164.273V166.148ZM361.277 164.172C361.277 162.948 361.105 162.057 360.762 161.5C360.418 160.938 359.874 160.656 359.129 160.656C358.389 160.656 357.85 160.935 357.512 161.492C357.173 162.049 356.999 162.906 356.988 164.062V166.375C356.988 167.604 357.165 168.513 357.519 169.102C357.879 169.685 358.42 169.977 359.144 169.977C359.858 169.977 360.387 169.701 360.73 169.148C361.079 168.596 361.262 167.727 361.277 166.539V164.172ZM371.867 166.148C371.867 167.841 371.578 169.099 371 169.922C370.422 170.745 369.518 171.156 368.289 171.156C367.075 171.156 366.177 170.755 365.593 169.953C365.01 169.146 364.708 167.943 364.687 166.344V164.414C364.687 162.742 364.976 161.5 365.554 160.688C366.132 159.875 367.039 159.469 368.273 159.469C369.497 159.469 370.398 159.862 370.976 160.648C371.554 161.43 371.851 162.638 371.867 164.273V166.148ZM370.422 164.172C370.422 162.948 370.25 162.057 369.906 161.5C369.562 160.938 369.018 160.656 368.273 160.656C367.534 160.656 366.994 160.935 366.656 161.492C366.317 162.049 366.143 162.906 366.132 164.062V166.375C366.132 167.604 366.31 168.513 366.664 169.102C367.023 169.685 367.565 169.977 368.289 169.977C369.002 169.977 369.531 169.701 369.875 169.148C370.224 168.596 370.406 167.727 370.422 166.539V164.172Z" fill="#4F4F4F"/>
<path d="M353.578 226.148C353.578 227.841 353.289 229.099 352.711 229.922C352.133 230.745 351.229 231.156 350 231.156C348.786 231.156 347.888 230.755 347.305 229.953C346.721 229.146 346.419 227.943 346.398 226.344V224.414C346.398 222.742 346.688 221.5 347.266 220.688C347.844 219.875 348.75 219.469 349.984 219.469C351.208 219.469 352.109 219.862 352.688 220.648C353.266 221.43 353.562 222.638 353.578 224.273V226.148ZM352.133 224.172C352.133 222.948 351.961 222.057 351.617 221.5C351.273 220.938 350.729 220.656 349.984 220.656C349.245 220.656 348.706 220.935 348.367 221.492C348.029 222.049 347.854 222.906 347.844 224.062V226.375C347.844 227.604 348.021 228.513 348.375 229.102C348.734 229.685 349.276 229.977 350 229.977C350.714 229.977 351.242 229.701 351.586 229.148C351.935 228.596 352.117 227.727 352.133 226.539V224.172Z" fill="#4F4F4F"/>
<path d="M295.938 60L337.5 35V133H1.5V116.5L86.375 109L138.875 73.5L162.062 67.5L181.75 60H267.062H295.938Z" fill="#F4A26C" stroke="white" stroke-width="3"/>
<path d="M295.938 105.5L337.5 99V178.5L1.5 219V129.5L85.5 119L135.375 129.5L162.062 113L184.812 119H266.188L295.938 105.5Z" fill="#3FAEA3" stroke="white" stroke-width="3"/>
<path d="M295.062 147.153L337.5 138V228H1.5V214.78L85.5 197.492H134.062L162.062 161.39L190.062 179.186L266.188 167.492L295.062 147.153Z" fill="#914DF0" stroke="white" stroke-width="3"/>
<line x1="1.50298" y1="226" x2="337.503" y2="227" stroke="#8E8E93" stroke-width="2"/>
<path d="M354.68 3.85938H351.023V14H349.531V3.85938H345.883V2.625H354.68V3.85938ZM355.137 9.69531C355.137 8.86719 355.298 8.1224 355.621 7.46094C355.949 6.79948 356.402 6.28906 356.98 5.92969C357.564 5.57031 358.228 5.39062 358.972 5.39062C360.124 5.39062 361.053 5.78906 361.762 6.58594C362.475 7.38281 362.832 8.44271 362.832 9.76562V9.86719C362.832 10.6901 362.673 11.4297 362.355 12.0859C362.043 12.737 361.592 13.2448 361.004 13.6094C360.42 13.974 359.749 14.1562 358.988 14.1562C357.842 14.1562 356.913 13.7578 356.199 12.9609C355.491 12.1641 355.137 11.1094 355.137 9.79688V9.69531ZM356.59 9.86719C356.59 10.8047 356.806 11.5573 357.238 12.125C357.676 12.6927 358.259 12.9766 358.988 12.9766C359.722 12.9766 360.306 12.6901 360.738 12.1172C361.17 11.5391 361.387 10.7318 361.387 9.69531C361.387 8.76823 361.165 8.01823 360.722 7.44531C360.285 6.86719 359.702 6.57812 358.972 6.57812C358.259 6.57812 357.683 6.86198 357.246 7.42969C356.808 7.9974 356.59 8.8099 356.59 9.86719ZM366.765 3.5V5.54688H368.343V6.66406H366.765V11.9062C366.765 12.2448 366.836 12.5 366.976 12.6719C367.117 12.8385 367.356 12.9219 367.695 12.9219C367.862 12.9219 368.091 12.8906 368.382 12.8281V14C368.002 14.1042 367.632 14.1562 367.273 14.1562C366.627 14.1562 366.14 13.9609 365.812 13.5703C365.484 13.1797 365.32 12.625 365.32 11.9062V6.66406H363.781V5.54688H365.32V3.5H366.765ZM375.417 14C375.334 13.8333 375.266 13.5365 375.214 13.1094C374.542 13.8073 373.74 14.1562 372.808 14.1562C371.975 14.1562 371.29 13.9219 370.753 13.4531C370.222 12.9792 369.957 12.3802 369.957 11.6562C369.957 10.776 370.29 10.0938 370.957 9.60938C371.628 9.11979 372.571 8.875 373.785 8.875H375.191V8.21094C375.191 7.70573 375.04 7.30469 374.738 7.00781C374.436 6.70573 373.99 6.55469 373.402 6.55469C372.886 6.55469 372.454 6.6849 372.105 6.94531C371.756 7.20573 371.582 7.52083 371.582 7.89062H370.128C370.128 7.46875 370.277 7.0625 370.574 6.67188C370.876 6.27604 371.282 5.96354 371.792 5.73438C372.308 5.50521 372.873 5.39062 373.488 5.39062C374.462 5.39062 375.225 5.63542 375.777 6.125C376.329 6.60938 376.615 7.27865 376.636 8.13281V12.0234C376.636 12.7995 376.735 13.4167 376.933 13.875V14H375.417ZM373.019 12.8984C373.472 12.8984 373.902 12.7812 374.308 12.5469C374.714 12.3125 375.009 12.0078 375.191 11.6328V9.89844H374.058C372.287 9.89844 371.402 10.4167 371.402 11.4531C371.402 11.9062 371.553 12.2604 371.855 12.5156C372.157 12.7708 372.545 12.8984 373.019 12.8984ZM380.632 14H379.187V2H380.632V14Z" fill="#4F4F4F"/>
<line x1="51.5" y1="227" x2="51.5" y2="235" stroke="#8E8E93" stroke-width="2"/>
<line x1="131.5" y1="227" x2="131.5" y2="235" stroke="#8E8E93" stroke-width="2"/>
<line x1="211.5" y1="227" x2="211.5" y2="235" stroke="#8E8E93" stroke-width="2"/>
<line x1="291.5" y1="227" x2="291.5" y2="235" stroke="#8E8E93" stroke-width="2"/>
</svg>
