<svg width="24" height="24" viewBox="0 0 24 24" fill="none" xmlns="http://www.w3.org/2000/svg">
<path d="M12 4.21875C14.0766 4.21875 16.0312 5.02969 17.5031 6.49688C18.9703 7.96875 19.7812 9.92344 19.7812 12C19.7812 14.0766 18.9703 16.0312 17.5031 17.5031C16.0312 18.9703 14.0766 19.7812 12 19.7812C9.92344 19.7812 7.96875 18.9703 6.49688 17.5031C5.02969 16.0312 4.21875 14.0766 4.21875 12C4.21875 9.92344 5.02969 7.96875 6.49688 6.49688C7.96875 5.02969 9.92344 4.21875 12 4.21875ZM12 2.25C6.61406 2.25 2.25 6.61406 2.25 12C2.25 17.3859 6.61406 21.75 12 21.75C17.3859 21.75 21.75 17.3859 21.75 12C21.75 6.61406 17.3859 2.25 12 2.25Z" fill="#2F80ED"/>
<path d="M17.0156 12.9844H6.98438V11.0156H17.0156V12.9844Z" fill="#2F80ED"/>
</svg>
