<svg width="24" height="24" viewBox="0 0 24 24" fill="none" xmlns="http://www.w3.org/2000/svg">
<g clip-path="url(#clip0_233_394)">
<path d="M13.1258 14.5588L14.5558 13.1288L20.9958 19.5718L19.5688 20.9988L13.1258 14.5588ZM17.4188 8.82876L20.2788 5.96876C16.3288 2.01876 9.92876 2.00876 5.97876 5.94876C9.90876 4.64876 14.2888 5.69876 17.4188 8.82876ZM5.94876 5.97876C2.00876 9.92876 2.01876 16.3288 5.96876 20.2788L8.82876 17.4188C5.69876 14.2888 4.64876 9.90876 5.94876 5.97876ZM5.96876 5.95876L5.95876 5.96876C5.57876 8.97876 7.12876 12.8488 10.2588 15.9888L15.9888 10.2588C12.8588 7.12876 8.97876 5.57876 5.96876 5.95876Z" fill="#2F80ED"/>
</g>
<defs>
<clipPath id="clip0_233_394">
<rect width="24" height="24" fill="white"/>
</clipPath>
</defs>
</svg>
