<svg width="36" height="36" viewBox="0 0 36 36" fill="none" xmlns="http://www.w3.org/2000/svg">
<rect width="36" height="36" rx="3" fill="#F1F1F1"/>
<path d="M26 21.5C24.7955 21.5 23.5982 21.3145 22.4502 20.9502C22.1001 20.8501 21.7002 20.8999 21.4502 21.2002L19.25 23.4C16.3999 21.9502 14.1001 19.65 12.6499 16.7998L14.8501 14.6001C15.1001 14.3501 15.1999 13.9502 15.1001 13.6001C14.6999 12.4502 14.5 11.25 14.5 9.99998C14.5 9.45019 14.05 9 13.5 9H9.99998C9.44995 9 9 9.45019 9 9.99998C9 19.3999 16.6001 27 26 27C26.5498 27 27 26.5498 27 26V22.5C27 21.9502 26.5498 21.5 26 21.5Z" fill="#2F80ED"/>
</svg>
