<svg width="36" height="36" viewBox="0 0 36 36" fill="none" xmlns="http://www.w3.org/2000/svg">
<rect width="36" height="36" rx="3" fill="#F1F1F1"/>
<path d="M19.875 12.375C19.875 11.3437 19.0313 10.5 18 10.5C16.9687 10.5 16.125 11.3437 16.125 12.375C16.125 13.4063 16.9687 14.25 18 14.25C19.0313 14.25 19.875 13.4063 19.875 12.375ZM19.875 23.625C19.875 22.5937 19.0313 21.75 18 21.75C16.9687 21.75 16.125 22.5937 16.125 23.625C16.125 24.6563 16.9687 25.5 18 25.5C19.0313 25.5 19.875 24.6563 19.875 23.625ZM19.875 18C19.875 16.9687 19.0313 16.125 18 16.125C16.9687 16.125 16.125 16.9687 16.125 18C16.125 19.0313 16.9687 19.875 18 19.875C19.0313 19.875 19.875 19.0313 19.875 18Z" fill="#2F80ED"/>
</svg>
