<svg width="48" height="48" viewBox="0 0 48 48" fill="none" xmlns="http://www.w3.org/2000/svg">
<g clip-path="url(#clip0_233_2660)">
<path d="M41.08 10.46L38.3 7.1C37.76 6.42 36.94 6 36 6H12C11.06 6 10.24 6.42 9.68 7.1L6.92 10.46C6.34 11.14 6 12.04 6 13V38C6 40.2 7.8 42 10 42H38C40.2 42 42 40.2 42 38V13C42 12.04 41.66 11.14 41.08 10.46ZM24 35L13 24H20V20H28V24H35L24 35ZM10.24 10L11.86 8H35.86L37.74 10H10.24Z" fill="#828282"/>
</g>
<defs>
<clipPath id="clip0_233_2660">
<rect width="48" height="48" fill="white"/>
</clipPath>
</defs>
</svg>
